<svg width="48" height="48" viewBox="0 0 48 48" fill="none" xmlns="http://www.w3.org/2000/svg">
<mask id="mask0_1_921" style="mask-type:alpha" maskUnits="userSpaceOnUse" x="0" y="0" width="48" height="48">
<rect width="48" height="48" fill="#D9D9D9"/>
</mask>
<g mask="url(#mask0_1_921)">
<path d="M18 40.0002H10C8.9 40.0002 7.95833 39.6086 7.175 38.8252C6.39167 38.0419 6 37.1002 6 36.0002V8.00024C6 6.90024 6.39167 5.95858 7.175 5.17524C7.95833 4.39191 8.9 4.00024 10 4.00024H38C39.1 4.00024 40.0417 4.39191 40.825 5.17524C41.6083 5.95858 42 6.90024 42 8.00024V36.0002C42 37.1002 41.6083 38.0419 40.825 38.8252C40.0417 39.6086 39.1 40.0002 38 40.0002H30L25.4 44.6003C25 45.0003 24.5333 45.2002 24 45.2002C23.4667 45.2002 23 45.0003 22.6 44.6003L18 40.0002ZM10 36.0002H19.6L24 40.4002L28.4 36.0002H38V8.00024H10V36.0002ZM23.8 34.0002C24.5 34.0002 25.0917 33.7586 25.575 33.2752C26.0583 32.7919 26.3 32.2002 26.3 31.5002C26.3 30.8002 26.0583 30.2086 25.575 29.7252C25.0917 29.2419 24.5 29.0002 23.8 29.0002C23.1 29.0002 22.5083 29.2419 22.025 29.7252C21.5417 30.2086 21.3 30.8002 21.3 31.5002C21.3 32.2002 21.5417 32.7919 22.025 33.2752C22.5083 33.7586 23.1 34.0002 23.8 34.0002ZM27.3 16.0002C27.3 16.5669 27.1167 17.1752 26.75 17.8252C26.3833 18.4752 25.7667 19.1836 24.9 19.9502C24.3333 20.4502 23.875 20.9252 23.525 21.3752C23.175 21.8252 22.8833 22.2836 22.65 22.7502C22.5167 23.0169 22.4167 23.2836 22.35 23.5502C22.2833 23.8169 22.2167 24.1169 22.15 24.4502C22.0833 24.9502 22.2167 25.3836 22.55 25.7502C22.8833 26.1169 23.3167 26.3002 23.85 26.3002C24.3167 26.3002 24.7333 26.1336 25.1 25.8002C25.4667 25.4669 25.7167 25.0169 25.85 24.4502C25.95 23.9836 26.1417 23.5502 26.425 23.1502C26.7083 22.7502 27.1667 22.2336 27.8 21.6002C28.9667 20.4336 29.7917 19.4502 30.275 18.6502C30.7583 17.8502 31 16.9669 31 16.0002C31 14.2002 30.3917 12.7502 29.175 11.6502C27.9583 10.5502 26.3 10.0002 24.2 10.0002C22.7 10.0002 21.4 10.3169 20.3 10.9502C19.2 11.5836 18.3167 12.4669 17.65 13.6002C17.4167 14.0002 17.4083 14.4169 17.625 14.8502C17.8417 15.2836 18.1833 15.5836 18.65 15.7502C19.0833 15.9169 19.5167 15.9169 19.95 15.7502C20.3833 15.5836 20.7333 15.3169 21 14.9502C21.3667 14.4836 21.8167 14.1086 22.35 13.8252C22.8833 13.5419 23.5 13.4002 24.2 13.4002C25.0667 13.4002 25.8 13.6419 26.4 14.1252C27 14.6086 27.3 15.2336 27.3 16.0002Z" fill="#F1C953"/>
</g>
</svg>
