<svg width="30" height="35" viewBox="0 0 30 35" fill="none" xmlns="http://www.w3.org/2000/svg">
<path d="M10 30H3.33333C2.41667 30 1.63194 29.6736 0.979167 29.0208C0.326389 28.3681 0 27.5833 0 26.6667V3.33333C0 2.41667 0.326389 1.63194 0.979167 0.979167C1.63194 0.326389 2.41667 0 3.33333 0H26.6667C27.5833 0 28.3681 0.326389 29.0208 0.979167C29.6736 1.63194 30 2.41667 30 3.33333V26.6667C30 27.5833 29.6736 28.3681 29.0208 29.0208C28.3681 29.6736 27.5833 30 26.6667 30H20L16.1667 33.8333C16 34 15.8194 34.1181 15.625 34.1875C15.4306 34.2569 15.2222 34.2917 15 34.2917C14.7778 34.2917 14.5694 34.2569 14.375 34.1875C14.1806 34.1181 14 34 13.8333 33.8333L10 30ZM3.33333 24.75C4.83333 23.2778 6.57639 22.1181 8.5625 21.2708C10.5486 20.4236 12.6944 20 15 20C17.3056 20 19.4514 20.4236 21.4375 21.2708C23.4236 22.1181 25.1667 23.2778 26.6667 24.75V3.33333H3.33333V24.75ZM15 16.6667C16.6111 16.6667 17.9861 16.0972 19.125 14.9583C20.2639 13.8194 20.8333 12.4444 20.8333 10.8333C20.8333 9.22222 20.2639 7.84722 19.125 6.70833C17.9861 5.56944 16.6111 5 15 5C13.3889 5 12.0139 5.56944 10.875 6.70833C9.73611 7.84722 9.16667 9.22222 9.16667 10.8333C9.16667 12.4444 9.73611 13.8194 10.875 14.9583C12.0139 16.0972 13.3889 16.6667 15 16.6667ZM6.66667 26.6667H23.3333V26.25C22.1667 25.2778 20.875 24.5486 19.4583 24.0625C18.0417 23.5764 16.5556 23.3333 15 23.3333C13.4444 23.3333 11.9583 23.5764 10.5417 24.0625C9.125 24.5486 7.83333 25.2778 6.66667 26.25V26.6667ZM15 13.3333C14.3056 13.3333 13.7153 13.0903 13.2292 12.6042C12.7431 12.1181 12.5 11.5278 12.5 10.8333C12.5 10.1389 12.7431 9.54861 13.2292 9.0625C13.7153 8.57639 14.3056 8.33333 15 8.33333C15.6944 8.33333 16.2847 8.57639 16.7708 9.0625C17.2569 9.54861 17.5 10.1389 17.5 10.8333C17.5 11.5278 17.2569 12.1181 16.7708 12.6042C16.2847 13.0903 15.6944 13.3333 15 13.3333Z" fill="#4EA487"/>
</svg>
