<svg width="30" height="35" viewBox="0 0 30 35" fill="none" xmlns="http://www.w3.org/2000/svg">
<path d="M10 30H3.33333C2.41667 30 1.63194 29.6736 0.979167 29.0208C0.326389 28.3681 0 27.5833 0 26.6667V3.33333C0 2.41667 0.326389 1.63194 0.979167 0.979167C1.63194 0.326389 2.41667 0 3.33333 0H26.6667C27.5833 0 28.3681 0.326389 29.0208 0.979167C29.6736 1.63194 30 2.41667 30 3.33333V26.6667C30 27.5833 29.6736 28.3681 29.0208 29.0208C28.3681 29.6736 27.5833 30 26.6667 30H20L16.1667 33.8333C15.8333 34.1667 15.4444 34.3333 15 34.3333C14.5556 34.3333 14.1667 34.1667 13.8333 33.8333L10 30ZM3.33333 26.6667H11.3333L15 30.3333L18.6667 26.6667H26.6667V3.33333H3.33333V26.6667ZM14.8333 25C15.4167 25 15.9097 24.7986 16.3125 24.3958C16.7153 23.9931 16.9167 23.5 16.9167 22.9167C16.9167 22.3333 16.7153 21.8403 16.3125 21.4375C15.9097 21.0347 15.4167 20.8333 14.8333 20.8333C14.25 20.8333 13.7569 21.0347 13.3542 21.4375C12.9514 21.8403 12.75 22.3333 12.75 22.9167C12.75 23.5 12.9514 23.9931 13.3542 24.3958C13.7569 24.7986 14.25 25 14.8333 25ZM17.75 10C17.75 10.4722 17.5972 10.9792 17.2917 11.5208C16.9861 12.0625 16.4722 12.6528 15.75 13.2917C15.2778 13.7083 14.8958 14.1042 14.6042 14.4792C14.3125 14.8542 14.0694 15.2361 13.875 15.625C13.7639 15.8472 13.6806 16.0694 13.625 16.2917C13.5694 16.5139 13.5139 16.7639 13.4583 17.0417C13.4028 17.4583 13.5139 17.8194 13.7917 18.125C14.0694 18.4306 14.4306 18.5833 14.875 18.5833C15.2639 18.5833 15.6111 18.4444 15.9167 18.1667C16.2222 17.8889 16.4306 17.5139 16.5417 17.0417C16.625 16.6528 16.7847 16.2917 17.0208 15.9583C17.2569 15.625 17.6389 15.1944 18.1667 14.6667C19.1389 13.6944 19.8264 12.875 20.2292 12.2083C20.6319 11.5417 20.8333 10.8056 20.8333 10C20.8333 8.5 20.3264 7.29167 19.3125 6.375C18.2986 5.45833 16.9167 5 15.1667 5C13.9167 5 12.8333 5.26389 11.9167 5.79167C11 6.31945 10.2639 7.05556 9.70833 8C9.51389 8.33333 9.50694 8.68056 9.6875 9.04167C9.86806 9.40278 10.1528 9.65278 10.5417 9.79167C10.9028 9.93056 11.2639 9.93056 11.625 9.79167C11.9861 9.65278 12.2778 9.43056 12.5 9.125C12.8056 8.73611 13.1806 8.42361 13.625 8.1875C14.0694 7.95139 14.5833 7.83333 15.1667 7.83333C15.8889 7.83333 16.5 8.03472 17 8.4375C17.5 8.84028 17.75 9.36111 17.75 10Z" fill="#4EA487"/>
</svg>
