<svg width="33" height="33" viewBox="0 0 33 33" fill="none" xmlns="http://www.w3.org/2000/svg">
<path d="M8.41667 14.6763C8.80556 13.8985 9.20833 13.1485 9.625 12.4263C10.0417 11.7041 10.5 10.9818 11 10.2596L8.66667 9.80128L5.16667 13.3013L8.41667 14.6763ZM28.5 3.21795C26.5556 3.2735 24.4792 3.84295 22.2708 4.92628C20.0625 6.00962 18.0556 7.45406 16.25 9.25962C15.0833 10.4263 14.0417 11.6763 13.125 13.0096C12.2083 14.3429 11.5278 15.593 11.0833 16.7596L15.8333 21.468C17 21.0235 18.25 20.343 19.5833 19.4263C20.9167 18.5096 22.1667 17.4679 23.3333 16.3013C25.1389 14.4957 26.5833 12.4957 27.6667 10.3013C28.75 8.10684 29.3194 6.03739 29.375 4.09295C29.375 3.98184 29.3542 3.87073 29.3125 3.75962C29.2708 3.6485 29.2083 3.55128 29.125 3.46795C29.0417 3.38462 28.9444 3.32212 28.8333 3.28045C28.7222 3.23878 28.6111 3.21795 28.5 3.21795ZM19.3333 13.2179C18.6944 12.5791 18.375 11.7943 18.375 10.8638C18.375 9.93323 18.6944 9.14851 19.3333 8.50962C19.9722 7.87073 20.7639 7.55128 21.7083 7.55128C22.6528 7.55128 23.4444 7.87073 24.0833 8.50962C24.7222 9.14851 25.0417 9.93323 25.0417 10.8638C25.0417 11.7943 24.7222 12.5791 24.0833 13.2179C23.4444 13.8568 22.6528 14.1763 21.7083 14.1763C20.7639 14.1763 19.9722 13.8568 19.3333 13.2179ZM17.9167 24.1346L19.2917 27.4263L22.7917 23.9263L22.3333 21.593C21.6111 22.093 20.8889 22.5443 20.1667 22.9471C19.4444 23.3499 18.6944 23.7457 17.9167 24.1346ZM32.5417 1.88462C32.7639 4.94017 32.2639 7.91934 31.0417 10.8221C29.8194 13.7249 27.8889 16.4957 25.25 19.1346L26.0833 23.2596C26.1944 23.8152 26.1667 24.3568 26 24.8846C25.8333 25.4124 25.5556 25.8707 25.1667 26.2596L19.9167 31.5096C19.5 31.9263 19 32.086 18.4167 31.9888C17.8333 31.8916 17.4306 31.5652 17.2083 31.0096L14.6667 25.0513L7.54167 17.9263L1.58333 15.3846C1.02778 15.1624 0.694444 14.7596 0.583333 14.1763C0.472222 13.5929 0.625 13.0929 1.04167 12.6763L6.29167 7.42628C6.68056 7.03739 7.14583 6.75962 7.6875 6.59295C8.22917 6.42628 8.77778 6.3985 9.33333 6.50962L13.4583 7.34295C16.0972 4.70406 18.8681 2.7735 21.7708 1.55128C24.6736 0.32906 27.6528 -0.17094 30.7083 0.0512821C30.9306 0.0790598 31.1528 0.14156 31.375 0.238782C31.5972 0.336004 31.7917 0.467949 31.9583 0.634615C32.125 0.801282 32.2569 0.995727 32.3542 1.21795C32.4514 1.44017 32.5139 1.66239 32.5417 1.88462ZM3.125 22.3846C4.09722 21.4124 5.28472 20.9193 6.6875 20.9054C8.09028 20.8916 9.27778 21.3707 10.25 22.343C11.2222 23.3152 11.7014 24.5027 11.6875 25.9054C11.6736 27.3082 11.1806 28.4957 10.2083 29.4679C8.875 30.8013 7.29861 31.593 5.47917 31.843C3.65972 32.093 1.83333 32.3429 0 32.5929C0.25 30.7596 0.5 28.9332 0.75 27.1138C1 25.2943 1.79167 23.718 3.125 22.3846ZM5.5 24.718C5.02778 25.1902 4.70139 25.7596 4.52083 26.4263C4.34028 27.093 4.19444 27.7735 4.08333 28.468C4.77778 28.3568 5.45833 28.218 6.125 28.0513C6.79167 27.8846 7.36111 27.5652 7.83333 27.093C8.16667 26.7596 8.34722 26.3568 8.375 25.8846C8.40278 25.4124 8.25 25.0096 7.91667 24.6763C7.58333 24.343 7.18056 24.1832 6.70833 24.1971C6.23611 24.211 5.83333 24.3846 5.5 24.718Z" fill="#4EA487"/>
</svg>
