<svg width="31" height="34" viewBox="0 0 31 34" fill="none" xmlns="http://www.w3.org/2000/svg">
<path d="M3.875 30.1143H9.6875V20.4C9.6875 19.8495 9.87318 19.3881 10.2445 19.0157C10.6159 18.6433 11.076 18.4571 11.625 18.4571H19.375C19.924 18.4571 20.3841 18.6433 20.7555 19.0157C21.1268 19.3881 21.3125 19.8495 21.3125 20.4V30.1143H27.125V12.6286L15.5 3.88571L3.875 12.6286V30.1143ZM0 30.1143V12.6286C0 12.0133 0.13724 11.4305 0.411719 10.88C0.686198 10.3295 1.06563 9.87619 1.55 9.52L13.175 0.777143C13.8531 0.259048 14.6281 0 15.5 0C16.3719 0 17.1469 0.259048 17.825 0.777143L29.45 9.52C29.9344 9.87619 30.3138 10.3295 30.5883 10.88C30.8628 11.4305 31 12.0133 31 12.6286V30.1143C31 31.1829 30.6206 32.0976 29.8617 32.8586C29.1029 33.6195 28.1906 34 27.125 34H19.375C18.826 34 18.3659 33.8138 17.9945 33.4414C17.6232 33.069 17.4375 32.6076 17.4375 32.0571V22.3429H13.5625V32.0571C13.5625 32.6076 13.3768 33.069 13.0055 33.4414C12.6341 33.8138 12.174 34 11.625 34H3.875C2.80938 34 1.89714 33.6195 1.13828 32.8586C0.379427 32.0976 0 31.1829 0 30.1143Z" fill="#4EA487"/>
</svg>
