<svg width="147" height="147" viewBox="0 0 147 147" fill="none" xmlns="http://www.w3.org/2000/svg">
<path d="M55 106.333L106.333 73.3333L55 40.3333V106.333ZM73.3333 146.667C63.1889 146.667 53.6556 144.742 44.7333 140.892C35.8111 137.042 28.05 131.817 21.45 125.217C14.85 118.617 9.625 110.856 5.775 101.933C1.925 93.0111 0 83.4778 0 73.3333C0 63.1889 1.925 53.6556 5.775 44.7333C9.625 35.8111 14.85 28.05 21.45 21.45C28.05 14.85 35.8111 9.625 44.7333 5.775C53.6556 1.925 63.1889 0 73.3333 0C83.4778 0 93.0111 1.925 101.933 5.775C110.856 9.625 118.617 14.85 125.217 21.45C131.817 28.05 137.042 35.8111 140.892 44.7333C144.742 53.6556 146.667 63.1889 146.667 73.3333C146.667 83.4778 144.742 93.0111 140.892 101.933C137.042 110.856 131.817 118.617 125.217 125.217C118.617 131.817 110.856 137.042 101.933 140.892C93.0111 144.742 83.4778 146.667 73.3333 146.667ZM73.3333 132C89.7111 132 103.583 126.317 114.95 114.95C126.317 103.583 132 89.7111 132 73.3333C132 56.9556 126.317 43.0833 114.95 31.7167C103.583 20.35 89.7111 14.6667 73.3333 14.6667C56.9556 14.6667 43.0833 20.35 31.7167 31.7167C20.35 43.0833 14.6667 56.9556 14.6667 73.3333C14.6667 89.7111 20.35 103.583 31.7167 114.95C43.0833 126.317 56.9556 132 73.3333 132Z" fill="white"/>
</svg>
