<svg width="44" height="43" viewBox="0 0 44 43" fill="none" xmlns="http://www.w3.org/2000/svg">
<path d="M24.0625 2.22039L24.0625 4.44079C24.0625 5.0699 23.8529 5.59724 23.4336 6.02282C23.0143 6.44839 22.4948 6.66118 21.875 6.66118C21.2552 6.66118 20.7357 6.44839 20.3164 6.02282C19.8971 5.59724 19.6875 5.0699 19.6875 4.44079L19.6875 2.22039C19.6875 1.59128 19.8971 1.06394 20.3164 0.638363C20.7357 0.212787 21.2552 -1.867e-06 21.875 -1.87468e-06C22.4948 -1.88236e-06 23.0143 0.212787 23.4336 0.638362C23.8529 1.06394 24.0625 1.59128 24.0625 2.22039ZM41.5625 24.4243L39.375 24.4243C38.7552 24.4243 38.2357 24.2116 37.8164 23.786C37.3971 23.3604 37.1875 22.8331 37.1875 22.2039C37.1875 21.5748 37.3971 21.0475 37.8164 20.6219C38.2357 20.1963 38.7552 19.9836 39.375 19.9836L41.5625 19.9836C42.1823 19.9836 42.7018 20.1963 43.1211 20.6219C43.5404 21.0475 43.75 21.5748 43.75 22.2039C43.75 22.8331 43.5404 23.3604 43.1211 23.786C42.7018 24.2116 42.1823 24.4243 41.5625 24.4243ZM4.375 24.4243L2.1875 24.4243C1.56771 24.4243 1.04818 24.2116 0.628907 23.786C0.209636 23.3604 -2.3985e-07 22.8331 -2.47646e-07 22.2039C-2.55443e-07 21.5748 0.209636 21.0475 0.628907 20.6219C1.04818 20.1963 1.56771 19.9836 2.1875 19.9836L4.375 19.9836C4.99479 19.9836 5.51432 20.1963 5.93359 20.6219C6.35286 21.0475 6.5625 21.5748 6.5625 22.2039C6.5625 22.8331 6.35286 23.3604 5.93359 23.786C5.51432 24.2116 4.99479 24.4243 4.375 24.4243ZM10.2812 6.2171L11.8125 7.77138C12.2135 8.17845 12.4141 8.69654 12.4141 9.32566C12.4141 9.95477 12.2135 10.4729 11.8125 10.8799C11.4115 11.287 10.901 11.4905 10.2812 11.4905C9.66146 11.4905 9.15104 11.287 8.75 10.8799L7.21875 9.32566C6.81771 8.91858 6.61719 8.40049 6.61719 7.77138C6.61719 7.14227 6.81771 6.62417 7.21875 6.2171C7.61979 5.81003 8.13021 5.60649 8.75 5.60649C9.36979 5.60649 9.88021 5.81003 10.2812 6.2171ZM36.5312 9.32566L35 10.8799C34.599 11.287 34.0885 11.4905 33.4687 11.4905C32.849 11.4905 32.3385 11.287 31.9375 10.8799C31.5365 10.4729 31.3359 9.95477 31.3359 9.32566C31.3359 8.69654 31.5365 8.17845 31.9375 7.77138L33.4687 6.2171C33.8698 5.81003 34.3802 5.60649 35 5.60649C35.6198 5.60649 36.1302 5.81003 36.5312 6.2171C36.9323 6.62417 37.1328 7.14227 37.1328 7.77138C37.1328 8.40049 36.9323 8.91858 36.5312 9.32566ZM21.875 11.102C24.901 11.102 27.4805 12.1844 29.6133 14.3493C31.7461 16.5142 32.8125 19.1324 32.8125 22.2039C32.8125 23.9803 32.4206 25.6363 31.6367 27.1721C30.8529 28.7079 29.7865 30.0123 28.4375 31.0855L28.4375 37.7467C28.4375 38.9679 28.0091 40.0134 27.1523 40.883C26.2956 41.7527 25.2656 42.1875 24.0625 42.1875L19.6875 42.1875C18.4844 42.1875 17.4544 41.7527 16.5977 40.883C15.7409 40.0134 15.3125 38.9679 15.3125 37.7467L15.3125 31.0855C13.9635 30.0123 12.8971 28.7079 12.1133 27.1721C11.3294 25.6363 10.9375 23.9803 10.9375 22.2039C10.9375 19.1324 12.0039 16.5142 14.1367 14.3493C16.2695 12.1844 18.849 11.102 21.875 11.102ZM24.0625 33.0839C23.6979 33.1579 23.3333 33.2134 22.9687 33.2504C22.6042 33.2874 22.2396 33.3059 21.875 33.3059C21.5104 33.3059 21.1458 33.2874 20.7812 33.2504C20.4167 33.2134 20.0521 33.1579 19.6875 33.0839L19.6875 37.7467L24.0625 37.7467L24.0625 33.0839ZM21.875 15.5428C20.0521 15.5428 18.5026 16.1904 17.2266 17.4856C15.9505 18.7808 15.3125 20.3536 15.3125 22.2039C15.3125 24.0543 15.9505 25.6271 17.2266 26.9223C18.5026 28.2175 20.0521 28.8651 21.875 28.8651C23.6979 28.8651 25.2474 28.2175 26.5234 26.9223C27.7995 25.6271 28.4375 24.0543 28.4375 22.2039C28.4375 20.3536 27.7995 18.7808 26.5234 17.4856C25.2474 16.1904 23.6979 15.5428 21.875 15.5428Z" fill="#F1C953"/>
</svg>
