<svg width="32" height="32" viewBox="0 0 32 32" fill="none" xmlns="http://www.w3.org/2000/svg">
<g clip-path="url(#clip0_58_612)">
<path d="M16.0074 0.242432C9.42771 0.242432 7.50341 0.24922 7.12936 0.28025C5.7791 0.392492 4.93888 0.605098 4.02351 1.06086C3.31808 1.41116 2.76173 1.81722 2.21266 2.38643C1.21269 3.42449 0.606648 4.70158 0.387261 6.21964C0.280597 6.95661 0.249568 7.10692 0.243265 10.8713C0.240841 12.1261 0.243265 13.7775 0.243265 15.9925C0.243265 22.567 0.250537 24.4895 0.282052 24.8628C0.391139 26.1767 0.597194 27.0034 1.03354 27.9076C1.86746 29.6386 3.46014 30.9379 5.33644 31.4228C5.98612 31.5901 6.70368 31.6822 7.62486 31.7258C8.01515 31.7428 11.9932 31.7549 15.9737 31.7549C19.9542 31.7549 23.9347 31.7501 24.3153 31.7307C25.3819 31.6805 26.0013 31.5973 26.6861 31.4204C28.5745 30.9331 30.1381 29.6531 30.989 27.8979C31.4169 27.0155 31.6338 26.1573 31.732 24.912C31.7533 24.6405 31.7623 20.3115 31.7623 15.9884C31.7623 11.6645 31.7526 7.34352 31.7313 7.07201C31.6319 5.80655 31.4149 4.95564 30.9732 4.05625C30.6108 3.32001 30.2084 2.77019 29.6242 2.20801C28.5816 1.21213 27.3064 0.606068 25.787 0.386916C25.0508 0.280492 24.9041 0.248977 21.1369 0.242432H16.0074Z" fill="url(#paint0_radial_58_612)"/>
<path d="M16.0003 4.36353C12.8401 4.36353 12.4435 4.37734 11.2023 4.43383C9.9636 4.49056 9.11805 4.68668 8.37819 4.97443C7.61288 5.27165 6.96369 5.66922 6.31692 6.31625C5.66967 6.96304 5.2721 7.61225 4.97393 8.37734C4.68545 9.11746 4.4891 9.96328 4.43334 11.2016C4.37783 12.4428 4.36328 12.8396 4.36328 15.9999C4.36328 19.1601 4.37734 19.5555 4.43358 20.7967C4.49055 22.0355 4.68667 22.8811 4.97417 23.621C5.27162 24.3863 5.66918 25.0355 6.31619 25.6823C6.96272 26.3296 7.61191 26.7281 8.37674 27.0253C9.11708 27.3131 9.96287 27.5092 11.2014 27.566C12.4426 27.6224 12.8389 27.6363 15.9988 27.6363C19.1592 27.6363 19.5546 27.6224 20.7958 27.566C22.0345 27.5092 22.881 27.3131 23.6214 27.0253C24.3864 26.7281 25.0347 26.3296 25.6812 25.6823C26.3284 25.0355 26.726 24.3863 27.0242 23.6212C27.3102 22.8811 27.5066 22.0353 27.5648 20.797C27.6205 19.5558 27.6351 19.1601 27.6351 15.9999C27.6351 12.8396 27.6205 12.443 27.5648 11.2018C27.5066 9.96304 27.3102 9.11746 27.0242 8.37759C26.726 7.61225 26.3284 6.96304 25.6812 6.31625C25.0339 5.66898 24.3867 5.2714 23.6206 4.97443C22.8788 4.68668 22.0328 4.49056 20.7941 4.43383C19.5529 4.37734 19.1577 4.36353 15.9966 4.36353H16.0003ZM14.9564 6.46049C15.2662 6.46001 15.6119 6.46049 16.0003 6.46049C19.1071 6.46049 19.4753 6.47165 20.7022 6.5274C21.8367 6.57928 22.4524 6.76886 22.8626 6.92813C23.4056 7.13904 23.7928 7.39116 24.1998 7.79843C24.607 8.20571 24.8591 8.59359 25.0705 9.13662C25.2298 9.54631 25.4196 10.1621 25.4712 11.2966C25.527 12.5233 25.5391 12.8918 25.5391 15.9972C25.5391 19.1027 25.527 19.4712 25.4712 20.6978C25.4194 21.8324 25.2298 22.4481 25.0705 22.8578C24.8596 23.4009 24.607 23.7875 24.1998 24.1946C23.7925 24.6018 23.4059 24.854 22.8626 25.0649C22.4529 25.2249 21.8367 25.4139 20.7022 25.4658C19.4756 25.5216 19.1071 25.5337 16.0003 25.5337C12.8932 25.5337 12.525 25.5216 11.2983 25.4658C10.1638 25.4135 9.54809 25.2239 9.13768 25.0646C8.59467 24.8537 8.2068 24.6016 7.79954 24.1943C7.39228 23.787 7.14017 23.4001 6.92878 22.8569C6.76951 22.4472 6.5797 21.8314 6.52806 20.6969C6.47231 19.4702 6.46116 19.1017 6.46116 15.9943C6.46116 12.8869 6.47231 12.5204 6.52806 11.2937C6.57994 10.1592 6.76951 9.5434 6.92878 9.13322C7.13968 8.59019 7.39228 8.20231 7.79954 7.79504C8.2068 7.38777 8.59467 7.13565 9.13768 6.92425C9.54785 6.76425 10.1638 6.57516 11.2983 6.52304C12.3718 6.47456 12.7878 6.46001 14.9564 6.45759V6.46049ZM22.2115 8.39262C21.4406 8.39262 20.8151 9.01734 20.8151 9.7885C20.8151 10.5594 21.4406 11.1849 22.2115 11.1849C22.9824 11.1849 23.6078 10.5594 23.6078 9.7885C23.6078 9.01759 22.9824 8.39213 22.2115 8.39213V8.39262ZM16.0003 10.0241C12.7002 10.0241 10.0247 12.6998 10.0247 15.9999C10.0247 19.3 12.7002 21.9744 16.0003 21.9744C19.3003 21.9744 21.9749 19.3 21.9749 15.9999C21.9749 12.6998 19.3003 10.0241 16.0003 10.0241ZM16.0003 12.1211C18.1423 12.1211 19.8789 13.8576 19.8789 15.9999C19.8789 18.142 18.1423 19.8787 16.0003 19.8787C13.858 19.8787 12.1216 18.142 12.1216 15.9999C12.1216 13.8576 13.858 12.1211 16.0003 12.1211Z" fill="#4EA487"/>
</g>
<defs>
<radialGradient id="paint0_radial_58_612" cx="0" cy="0" r="1" gradientUnits="userSpaceOnUse" gradientTransform="translate(8.61476 34.182) rotate(-90) scale(31.2312 29.0545)">
<stop stop-color="#FFDD55"/>
<stop offset="0.1" stop-color="#FFDD55"/>
<stop offset="0.754808" stop-color="#F1C953"/>
<stop offset="1" stop-color="#F1C953"/>
</radialGradient>
<clipPath id="clip0_58_612">
<rect width="32" height="32" fill="white"/>
</clipPath>
</defs>
</svg>
