<svg width="44" height="32" viewBox="0 0 44 32" fill="none" xmlns="http://www.w3.org/2000/svg">
<path d="M0 8.20209C0 4.10803 3.09148 0.691192 7.17824 0.446617C11.0381 0.215622 16.1956 0 22 0C27.8044 0 32.9619 0.215622 36.8218 0.446617C40.9085 0.691192 44 4.10803 44 8.20209V23.886C44 27.9427 40.9639 31.3294 36.9145 31.572C33.1791 31.7958 28.1 32 22 32C15.9 32 10.8209 31.7958 7.08548 31.572C3.03606 31.3294 0 27.9427 0 23.886V8.20209Z" fill="#F1C953"/>
<path d="M31 16L17.5 23.7942V8.20577L31 16Z" fill="#4EA487"/>
</svg>
