<svg width="32" height="32" viewBox="0 0 32 32" fill="none" xmlns="http://www.w3.org/2000/svg">
<g clip-path="url(#clip0_58_603)">
<path d="M25 0H7C3.13401 0 0 3.13401 0 7V25C0 28.866 3.13401 32 7 32H25C28.866 32 32 28.866 32 25V7C32 3.13401 28.866 0 25 0Z" fill="#F1C953"/>
<path d="M24.4371 8.58184C24.2621 8.49141 24.0918 8.39227 23.9267 8.28481C23.4468 7.96747 23.0067 7.59357 22.616 7.17114C21.6384 6.05264 21.2733 4.91791 21.1388 4.12347H21.1442C21.0319 3.46401 21.0784 3.03735 21.0854 3.03735H16.6329V20.2541C16.6329 20.4852 16.6329 20.7137 16.6232 20.9395C16.6232 20.9675 16.6205 20.9935 16.6189 21.0237C16.6189 21.0361 16.6189 21.0491 16.6162 21.0621C16.6162 21.0653 16.6162 21.0685 16.6162 21.0718C16.5693 21.6895 16.3712 22.2862 16.0396 22.8095C15.7079 23.3327 15.2527 23.7664 14.714 24.0725C14.1526 24.3919 13.5177 24.5594 12.8718 24.5585C10.7973 24.5585 9.11605 22.867 9.11605 20.778C9.11605 18.6889 10.7973 16.9974 12.8718 16.9974C13.2645 16.997 13.6548 17.0588 14.0281 17.1805L14.0335 12.647C12.9001 12.5006 11.7486 12.5907 10.6517 12.9116C9.55482 13.2325 8.53635 13.7772 7.66052 14.5114C6.89312 15.1782 6.24795 15.9738 5.75405 16.8624C5.56608 17.1864 4.85695 18.4886 4.77108 20.6019C4.71708 21.8014 5.07732 23.0442 5.24905 23.5578V23.5686C5.35708 23.871 5.77565 24.9031 6.45778 25.7732C7.00782 26.4711 7.65765 27.0842 8.38642 27.5927V27.5819L8.39722 27.5927C10.5527 29.0574 12.9426 28.9613 12.9426 28.9613C13.3563 28.9446 14.7421 28.9613 16.3159 28.2154C18.0615 27.3886 19.0552 26.1566 19.0552 26.1566C19.6901 25.4206 20.1949 24.5817 20.548 23.676C20.9509 22.6169 21.0854 21.3467 21.0854 20.839V11.7051C21.1394 11.7375 21.8588 12.2133 21.8588 12.2133C21.8588 12.2133 22.8952 12.8776 24.5122 13.3103C25.6723 13.6181 27.2353 13.6829 27.2353 13.6829V9.26287C26.6876 9.32227 25.5756 9.14947 24.4371 8.58184Z" fill="#4EA487"/>
</g>
<defs>
<clipPath id="clip0_58_603">
<rect width="32" height="32" fill="white"/>
</clipPath>
</defs>
</svg>
